<?xml version="1.0" encoding="UTF-8"?>
<svg xmlns="http://www.w3.org/2000/svg" xmlns:xlink="http://www.w3.org/1999/xlink" width="64px" height="64px" viewBox="0 0 64 64" version="1.1">
<g id="surface1">
<path style=" stroke:none;fill-rule:evenodd;fill:rgb(0%,0%,0%);fill-opacity:1;" d="M 4 32 C 4 47.464844 16.535156 60 32 60 C 47.464844 60 60 47.464844 60 32 C 60 16.535156 47.464844 4 32 4 C 16.535156 4 4 16.535156 4 32 Z M 64 32 C 64 49.671875 49.671875 64 32 64 C 14.328125 64 0 49.671875 0 32 C 0 14.328125 14.328125 0 32 0 C 49.671875 0 64 14.328125 64 32 Z M 34 46 C 34 47.105469 33.105469 48 32 48 C 30.894531 48 30 47.105469 30 46 L 30 22.828125 L 21.414062 31.414062 C 20.632812 32.199219 19.367188 32.199219 18.585938 31.414062 C 17.800781 30.632812 17.800781 29.367188 18.585938 28.585938 L 30.585938 16.585938 C 30.960938 16.207031 31.46875 15.996094 32 15.996094 C 32.53125 15.996094 33.039062 16.207031 33.414062 16.585938 L 45.414062 28.585938 C 46.199219 29.367188 46.199219 30.632812 45.414062 31.414062 C 44.632812 32.199219 43.367188 32.199219 42.585938 31.414062 L 34 22.828125 Z M 34 46 "/>
</g>
</svg>
