<?xml version="1.0" encoding="UTF-8"?>
<svg xmlns="http://www.w3.org/2000/svg" xmlns:xlink="http://www.w3.org/1999/xlink" width="32px" height="32px" viewBox="0 0 32 32" version="1.1">
<g id="surface1">
<path style=" stroke:none;fill-rule:evenodd;fill:rgb(225%,225%,225%);fill-opacity:1;" d="M 2 16 C 2 23.730469 8.269531 30 16 30 C 23.730469 30 30 23.730469 30 16 C 30 8.269531 23.730469 2 16 2 C 8.269531 2 2 8.269531 2 16 Z M 32 16 C 32 24.835938 24.835938 32 16 32 C 7.164062 32 0 24.835938 0 16 C 0 7.164062 7.164062 0 16 0 C 24.835938 0 32 7.164062 32 16 Z M 17 23 C 17 23.550781 16.550781 24 16 24 C 15.449219 24 15 23.550781 15 23 L 15 11.414062 L 10.707031 15.707031 C 10.316406 16.097656 9.683594 16.097656 9.292969 15.707031 C 8.902344 15.316406 8.902344 14.683594 9.292969 14.292969 L 15.292969 8.292969 C 15.480469 8.105469 15.734375 8 16 8 C 16.265625 8 16.519531 8.105469 16.707031 8.292969 L 22.707031 14.292969 C 23.097656 14.683594 23.097656 15.316406 22.707031 15.707031 C 22.316406 16.097656 21.683594 16.097656 21.292969 15.707031 L 17 11.414062 Z M 17 23 "/>
</g>
</svg>
